<svg width="133" height="100" viewBox="0 0 133 100" fill="none" xmlns="http://www.w3.org/2000/svg">
<path fill-rule="evenodd" clip-rule="evenodd" d="M88.5811 66.5257C81.8074 71.5303 71.9548 74.1967 63.4569 74.1967C51.5516 74.1967 40.8779 69.8074 32.7495 62.5056C32.1337 61.9313 32.6674 61.1519 33.4474 61.6031C42.1916 66.6898 52.9884 69.7254 64.1547 69.7254C71.6674 69.7254 79.96 68.1665 87.5958 64.9258C88.7453 64.4746 89.6895 65.7053 88.5811 66.5257Z" fill="#A2BDAA"/>
<path fill-rule="evenodd" clip-rule="evenodd" d="M91.4136 63.2849C90.5515 62.1773 85.6662 62.7516 83.4904 63.0388C82.8336 63.1208 82.7104 62.5465 83.3262 62.1363C87.2262 59.3878 93.5894 60.2083 94.3283 61.1108C95.0673 62.0132 94.1231 68.4127 90.4694 71.4483C89.8947 71.8995 89.361 71.6534 89.6073 71.0381C90.4283 68.987 92.2757 64.4335 91.4136 63.2849Z" fill="#A2BDAA"/>
<path fill-rule="evenodd" clip-rule="evenodd" d="M83.6137 42.8561V40.1896C83.6137 39.7794 83.901 39.5333 84.2705 39.5333H96.1758C96.5453 39.5333 96.8737 39.8204 96.8737 40.1896V42.4458C96.8737 42.815 96.5453 43.3073 95.9705 44.1277L89.8126 52.9064C92.1116 52.8654 94.5337 53.1936 96.5863 54.3422C97.0379 54.5883 97.161 54.9985 97.2021 55.3677V58.1982C97.2021 58.6085 96.7916 59.0597 96.34 58.8136C92.6863 56.8855 87.8011 56.6804 83.7779 58.8546C83.3674 59.0597 82.9158 58.6495 82.9158 58.2393V55.5318C82.9158 55.1216 82.9158 54.3832 83.3674 53.7269L90.5105 43.5124H84.3116C83.9421 43.5124 83.6137 43.2253 83.6137 42.8561ZM40.2211 59.3879H36.6084C36.28 59.3468 35.9926 59.1007 35.9516 58.7725V40.2307C35.9516 39.8615 36.28 39.5743 36.6495 39.5743H40.0158C40.3853 39.5743 40.6316 39.8615 40.6726 40.1896V42.6099H40.7547C41.6168 40.2717 43.3 39.1641 45.5168 39.1641C47.7747 39.1641 49.2116 40.2717 50.1968 42.6099C51.0589 40.2717 53.0705 39.1641 55.2053 39.1641C56.7242 39.1641 58.3663 39.7794 59.3926 41.2152C60.5421 42.774 60.2958 45.0302 60.2958 47.0403V58.7725C60.2958 59.1417 59.9674 59.4289 59.5979 59.4289H56.0263C55.6568 59.3879 55.3695 59.1007 55.3695 58.7725V48.9273C55.3695 48.1479 55.4516 46.1788 55.2874 45.4404C55 44.2098 54.22 43.8406 53.1526 43.8406C52.2905 43.8406 51.3463 44.4149 50.9768 45.3584C50.6074 46.3019 50.6484 47.8607 50.6484 48.9273V58.7725C50.6484 59.1417 50.32 59.4289 49.9505 59.4289H46.3379C45.9684 59.3879 45.6811 59.1007 45.6811 58.7725V48.9273C45.6811 46.8762 46.0095 43.7996 43.4642 43.7996C40.8779 43.7996 40.96 46.7531 40.96 48.9273V58.7725C40.9189 59.1007 40.6316 59.3879 40.2211 59.3879ZM107.137 39.1641C112.515 39.1641 115.429 43.7585 115.429 49.6247C115.429 55.2857 112.227 59.7981 107.137 59.7981C101.882 59.7981 99.0084 55.2036 99.0084 49.4606C98.9674 43.6765 101.882 39.1641 107.137 39.1641ZM107.137 42.9791C104.468 42.9791 104.304 46.6301 104.304 48.8863C104.304 51.1425 104.263 55.9831 107.096 55.9831C109.887 55.9831 110.052 52.086 110.052 49.7067C110.052 48.1479 109.969 46.2609 109.518 44.7841C109.107 43.4714 108.286 42.9791 107.137 42.9791ZM122.367 59.3879H118.755C118.385 59.3468 118.098 59.0597 118.098 58.7315V40.1486C118.139 39.8204 118.426 39.5333 118.796 39.5333H122.162C122.491 39.5333 122.737 39.7794 122.819 40.0666V42.8971H122.901C123.927 40.3537 125.323 39.1641 127.827 39.1641C129.428 39.1641 131.029 39.7384 132.056 41.3382C133 42.815 133 45.3174 133 47.1223V58.8136C132.959 59.1417 132.672 59.3879 132.302 59.3879H128.689C128.361 59.3468 128.074 59.1007 128.033 58.8136V48.7222C128.033 46.6711 128.279 43.7175 125.775 43.7175C124.913 43.7175 124.092 44.2918 123.681 45.1943C123.188 46.3429 123.106 47.4505 123.106 48.7222V58.7315C123.065 59.1007 122.737 59.3879 122.367 59.3879ZM74.1305 50.5272C74.1305 51.9219 74.1716 53.1115 73.4737 54.3832C72.8989 55.4088 71.9958 56.0241 70.9695 56.0241C69.5737 56.0241 68.7526 54.9575 68.7526 53.3987C68.7526 50.322 71.5032 49.7477 74.1305 49.7477V50.5272ZM77.7842 59.3469C77.5379 59.552 77.2095 59.593 76.9221 59.4289C75.7316 58.4444 75.4853 57.9521 74.8284 57.0086C72.8579 59.0187 71.421 59.634 68.8758 59.634C65.8379 59.634 63.4568 57.747 63.4568 54.014C63.4568 51.0604 65.0579 49.0914 67.3158 48.1069C69.2863 47.2454 72.0368 47.0813 74.1305 46.8352V46.3839C74.1305 45.5225 74.2126 44.4969 73.6789 43.7585C73.2274 43.1022 72.4063 42.815 71.6674 42.815C70.2716 42.815 69.04 43.5124 68.7526 44.9892C68.6705 45.3174 68.4653 45.6455 68.1368 45.6455L64.6474 45.2763C64.36 45.1943 64.0316 44.9892 64.1137 44.538C64.9347 40.2717 68.7526 39 72.201 39C73.9663 39 76.2653 39.4512 77.6611 40.805C79.4263 42.4458 79.2621 44.661 79.2621 47.0403V52.6603C79.2621 54.3422 79.96 55.0806 80.6168 56.0241C80.8632 56.3523 80.9042 56.7625 80.6168 56.9676C79.8368 57.5829 78.5232 58.7315 77.7842 59.3469ZM26.7147 50.5272C26.7147 51.9219 26.7558 53.1115 26.0579 54.3832C25.4832 55.4088 24.58 56.0241 23.5537 56.0241C22.1579 56.0241 21.3368 54.9575 21.3368 53.3987C21.3368 50.322 24.0874 49.7477 26.7147 49.7477V50.5272ZM30.3274 59.3469C30.0811 59.552 29.7526 59.593 29.4653 59.4289C28.2747 58.4444 28.0284 57.9521 27.3716 57.0086C25.4011 59.0187 23.9642 59.634 21.4189 59.634C18.3811 59.634 16 57.747 16 54.014C16 51.0604 17.601 49.0914 19.8589 48.1069C21.8295 47.2454 24.58 47.0813 26.6737 46.8352V46.3839C26.6737 45.5225 26.7558 44.4969 26.2221 43.7585C25.7705 43.1022 24.9495 42.815 24.2105 42.815C22.8147 42.815 21.5832 43.5124 21.2958 44.9892C21.2137 45.3174 21.0084 45.6455 20.68 45.6455L17.1905 45.2763C16.9032 45.1943 16.5747 44.9892 16.6568 44.538C17.4779 40.2717 21.2958 39 24.7442 39C26.5095 39 28.8084 39.4512 30.2042 40.805C31.9695 42.4458 31.8053 44.661 31.8053 47.0403V52.6603C31.8053 54.3422 32.5032 55.0806 33.16 56.0241C33.4063 56.3523 33.4474 56.7625 33.16 56.9676C32.38 57.5829 31.0663 58.7315 30.3274 59.3469Z" fill="#A2BDAA"/>
</svg>
